<?xml version="1.0" encoding="UTF-8"?>
<svg viewBox="0 0 75 75" version="1.1" xmlns="http://www.w3.org/2000/svg" xmlns:xlink="http://www.w3.org/1999/xlink">
    <title>in&amp;out/color-black/crypto/btc</title>
    <g id="in&amp;out/color-black/crypto/btc" stroke="none" stroke-width="1" fill="none" fill-rule="evenodd">
        <g id="bitcoin-logo" fill-rule="nonzero">
            <path d="M73.878714,46.571948 C68.8695566,66.6613 48.5188289,78.8862384 28.4247707,73.8776699 C8.34008862,68.8691014 -3.88745928,48.5207663 1.12287018,28.4325862 C6.12968362,8.34089044 26.4792393,-3.88639175 46.5674374,1.12217678 C66.6603236,6.13074532 78.8866995,26.4814241 73.877542,46.571948 L73.878714,46.571948 Z" id="Path" fill="#F7931A"></path>
            <path d="M54.0366373,32.157958 C54.7820337,27.1681394 50.9823874,24.485731 45.7868808,22.6962869 L47.4722267,15.936946 L43.3561385,14.9115605 L41.7153289,21.4927774 C40.6347385,21.2232475 39.523676,20.9689519 38.4196455,20.717 L40.0721752,14.092424 L35.959603,13.0670385 L34.2730851,19.8240358 C33.3776718,19.6201305 32.4986667,19.418569 31.6454457,19.2064607 L31.6501337,19.1853671 L25.9752763,17.7685774 L24.8806219,22.1630865 C24.8806219,22.1630865 27.9336998,22.8626923 27.8692395,22.9060515 C29.5358333,23.322065 29.838211,24.4247938 29.7866427,25.2990082 L27.8668954,32.9993601 C27.9817521,33.0286568 28.130597,33.0708441 28.294678,33.1364687 L27.8610354,33.0286568 L25.1689356,43.8157119 C24.9650064,44.3219593 24.4481513,45.0813305 23.2831765,44.7930507 C23.3241967,44.852816 20.2922149,44.0465701 20.2922149,44.0465701 L18.2494069,48.7574839 L23.6054784,50.0922428 C24.6016842,50.3418509 25.577966,50.6031777 26.5378396,50.8492702 L24.8349136,57.6871264 L28.9451418,58.7125119 L30.6328317,51.9484834 C31.7544423,52.2531694 32.8444087,52.534418 33.910935,52.7992604 L32.2302771,59.5316484 L36.3451933,60.5570338 L38.0481193,53.7332401 C45.0649246,55.0609677 50.3424716,54.5254236 52.5610807,48.1809243 C54.3507352,43.071575 52.4731801,40.1243242 48.7813584,38.201287 C51.4699422,37.5790245 53.4951701,35.810674 54.0354653,32.157958 L54.0366373,32.157958 Z M44.633626,45.3403136 C43.3608266,50.4496628 34.758296,47.6887392 31.9677476,46.9949927 L34.2273768,37.9376164 C37.0167532,38.6337067 45.9603378,40.0118248 44.634798,45.3403136 L44.633626,45.3403136 Z M45.9052535,32.0841303 C44.7449667,36.7317631 37.5840046,34.3704469 35.2599149,33.7915436 L37.308583,25.5767412 C39.6326726,26.1556445 47.1147646,27.2361078 45.9052535,32.0841303 L45.9052535,32.0841303 Z" id="Shape" fill="#FFFFFF"></path>
        </g>
    </g>
</svg>