<?xml version="1.0" encoding="UTF-8"?>
<svg width="21px" height="16px" viewBox="0 0 21 16" version="1.1" xmlns="http://www.w3.org/2000/svg" xmlns:xlink="http://www.w3.org/1999/xlink">
    <title>header-logout-icon</title>
    <g id="icon-set最新整理" stroke="none" stroke-width="1" fill="none" fill-rule="evenodd">
        <g id="images/h5/icon-set/index-theme-icon" transform="translate(-139.000000, -211.000000)" fill="#FFFFFF" fill-rule="nonzero">
            <g id="header-logout-icon" transform="translate(139.000000, 211.000000)">
                <path d="M0,2.66666667 L0,13.3333333 C0,14.8024691 1.20106132,16 2.6745283,16 L11.3213443,16 C12.7948113,16 13.9958726,14.8024691 13.9958726,13.3333333 L13.9958726,11.6049383 C13.9958726,11.3127572 13.7606132,11.0781893 13.4675708,11.0781893 C13.1745283,11.0781893 12.9392689,11.3127572 12.9392689,11.6049383 L12.9392689,13.3333333 C12.9392689,14.2222222 12.2128538,14.9506173 11.317217,14.9506173 L2.6745283,14.9506173 C1.78301887,14.9506173 1.05247642,14.2263374 1.05247642,13.3333333 L1.05247642,2.66666667 C1.05247642,1.77777778 1.77889151,1.04938272 2.6745283,1.04938272 L11.3213443,1.04938272 C12.2128538,1.04938272 12.9433962,1.77366255 12.9433962,2.66666667 L12.9433962,4.39506173 C12.9433962,4.6872428 13.1786557,4.9218107 13.4716981,4.9218107 C13.7647406,4.9218107 14,4.6872428 14,4.39506173 L14,2.66666667 C14,1.19753086 12.7989387,0 11.3254717,0 L2.6745283,0 C1.20106132,0 0,1.19341564 0,2.66666667 Z" id="Path"></path>
                <path d="M16.5670207,11.8297237 C16.6681841,11.9417476 16.7976732,12 16.9352554,12 C17.0728376,12 17.2023268,11.9417476 17.3034901,11.8297237 L20.8482549,7.90440627 C21.0505817,7.68035848 21.0505817,7.31740105 20.8482549,7.09335325 L17.3034901,3.16803585 C17.1011634,2.94398805 16.773394,2.94398805 16.5710673,3.16803585 C16.3687405,3.39208364 16.3687405,3.75504108 16.5710673,3.97908887 L19.2336874,6.92755788 L9.5179565,6.92755788 C9.2306525,6.92755788 9,7.18297237 9,7.50112024 C9,7.81926811 9.2306525,8.0746826 9.5179565,8.0746826 L19.2296409,8.0746826 L16.5670207,11.0231516 C16.3606474,11.2427184 16.3606474,11.6101568 16.5670207,11.8297237 Z" id="Path"></path>
            </g>
        </g>
    </g>
</svg>