<?xml version="1.0" encoding="utf-8"?>
<!-- Generator: Adobe Illustrator 27.5.0, SVG Export Plug-In . SVG Version: 6.00 Build 0)  -->
<svg version="1.1" xmlns="http://www.w3.org/2000/svg" xmlns:xlink="http://www.w3.org/1999/xlink" x="0px" y="0px"
	 viewBox="0 0 42 42" style="enable-background:new 0 0 42 42;" xml:space="preserve">
<style type="text/css">
	.st0{fill-rule:evenodd;clip-rule:evenodd;fill:#61D81D;}
	.st1{fill:none;stroke:#FFFFFF;stroke-width:1.1317;}
	.st2{fill:#FFFFFF;}
</style>
<g id="圖層_1">
	<g>
		<circle id="Oval_00000119083492616396854700000002652095388187867578_" class="st0" cx="27.7" cy="27.1" r="5.3"/>
	</g>
	<g>
		<circle class="st1" cx="21.1" cy="21" r="11.1"/>
		<g>
			<path class="st2" d="M21.1,27.1L21.1,27.1c-0.6,0-1.1-0.5-1.1-1.1v-6.3c0-0.6,0.5-1.1,1.1-1.1h0c0.6,0,1.1,0.5,1.1,1.1V26
				C22.2,26.6,21.7,27.1,21.1,27.1z"/>
			<path class="st2" d="M21.1,17.5L21.1,17.5c-0.7,0-1.3-0.6-1.3-1.3v0c0-0.7,0.6-1.3,1.3-1.3h0c0.7,0,1.3,0.6,1.3,1.3v0
				C22.4,16.9,21.8,17.5,21.1,17.5z"/>
		</g>
	</g>
</g>
<g id="圖層_2">
</g>
</svg>
