<?xml version="1.0" encoding="utf-8"?>
<!-- Generator: Adobe Illustrator 27.5.0, SVG Export Plug-In . SVG Version: 6.00 Build 0)  -->
<svg version="1.1" id="圖層_1" xmlns="http://www.w3.org/2000/svg" xmlns:xlink="http://www.w3.org/1999/xlink" x="0px" y="0px"
	 viewBox="0 0 42 42" style="enable-background:new 0 0 42 42;" xml:space="preserve">
<style type="text/css">
	.st0{fill-rule:evenodd;clip-rule:evenodd;fill:#61D81D;}
	.st1{fill:#FFFFFF;}
</style>
<g>
	<g id="圖層_1_00000139267138442799859780000001271112583153146041_">
		<g>
			<circle id="Oval_00000119083492616396854700000002652095388187867578_" class="st0" cx="27.5" cy="19.6" r="5"/>
		</g>
	</g>
	<path class="st1" d="M12.5,26.5c0.1,0,0.1,0,0.2,0c0.1,0,0.2,0,0.3,0.1c1.3,0.7,2.6,1.1,4.1,1.2c0.2,0,0.4,0.1,0.4,0.4
		c1.1,3.5,4.3,5.8,7.9,5.8c0.1,0,0.3,0,0.4,0c1.3-0.1,2.5-0.4,3.5-1c0.2-0.1,0.4-0.1,0.7-0.1c0.9,0.3,1.9,0.5,2.8,0.8l0.8,0.2
		c0,0,0-0.1,0-0.1l-0.2-0.8c-0.3-0.9-0.5-1.8-0.8-2.8c0-0.1,0-0.3,0-0.5c0.6-1.1,0.9-2.2,1-3.3c0,0,0-0.1,0-0.1l0,0l0-1.2H34l-0.1,0
		c0-0.2-0.1-0.3-0.1-0.5c-0.1-0.4-0.1-0.7-0.2-1.1c-0.8-2.8-2.7-4.7-5.5-5.7c-0.3-0.1-0.4-0.2-0.4-0.5c-0.4-3.7-2.3-6.5-5.6-8.2
		c-1-0.5-2.1-0.8-3.3-0.9c-0.1,0-0.1,0-0.2,0l0,0l-1.4,0c-0.2,0-0.3,0-0.5,0.1c-0.3,0-0.7,0.1-1,0.2c-3.9,1-6.4,3.5-7.4,7.4
		c-0.6,2.4-0.3,4.7,1,7.1c0.1,0.2,0.1,0.4,0,0.5c-0.3,1.1-0.6,2.3-0.9,3.4l-0.3,1l1.8-0.5C10.8,26.9,11.7,26.7,12.5,26.5z
		 M27.7,19.2c0-0.1,0-0.1,0.1-0.1c0.1,0,0.1,0,0.2,0c0.9,0.3,1.8,0.8,2.5,1.5c2.4,2.4,2.9,6,1,8.9c-0.1,0.2-0.2,0.4-0.1,0.6
		c0.1,0.4,0.2,0.8,0.4,1.3l0.1,0.4c0,0.1,0,0.1,0,0.2c0,0.1-0.1,0.1-0.2,0.1l0,0c-0.1,0-0.2,0-0.3-0.1L31,31.7
		c-0.4-0.1-0.8-0.2-1.1-0.3c-0.1,0-0.2,0-0.3,0.1c-1.2,0.8-2.5,1.2-4,1.2c-0.1,0-0.1,0-0.2,0c-2.8-0.1-5.4-2-6.4-4.6c0,0,0,0,0-0.1
		c0-0.1,0-0.1,0-0.2c0,0,0.1-0.1,0.1-0.1C23.9,26.8,26.7,24,27.7,19.2z M11.8,11.9c2.4-2.3,5.3-3.1,8.4-2.2c3.2,0.9,5.2,3.1,6,6.3
		c0.5,2.2,0.1,4.6-1.1,6.5c-1.3,2-3.2,3.3-5.5,3.7c-0.6,0.1-1.2,0.2-1.7,0.2c-1.6,0-3.2-0.5-4.6-1.4C13.1,25,13,25,12.8,25
		c-0.6,0.2-1.3,0.4-1.9,0.5l-0.6,0.2c-0.1,0-0.1,0-0.2-0.1c-0.1-0.1-0.1-0.1-0.1-0.2l0.2-0.6c0.2-0.6,0.3-1.3,0.5-1.9
		c0-0.2,0-0.3-0.1-0.4C8.5,19.1,9,14.7,11.8,11.9z"/>
	<path class="st1" d="M16.2,15.6h-1.3c0,0-0.1,0-0.1-0.1c0-0.7,0.3-1.4,0.7-1.9c1.1-1.3,3.1-1.4,4.4-0.2c1.3,1.2,1.3,3.2,0,4.4
		c-0.4,0.4-0.8,0.7-1.2,1.1c-0.1,0.1-0.2,0.2-0.2,0.4c0,0.3,0,0.6,0,0.8c0,0,0,0.1-0.1,0.1h-1.4c0,0-0.1,0-0.1-0.1
		c0-0.5,0-0.9,0-1.4c0-0.3,0.1-0.5,0.3-0.7c0.5-0.5,1.1-0.9,1.6-1.4c0.5-0.4,0.6-1.1,0.3-1.7c-0.3-0.6-0.8-0.9-1.5-0.9
		c-0.7,0-1.3,0.6-1.4,1.3C16.4,15.4,16.3,15.5,16.2,15.6C16.3,15.6,16.3,15.6,16.2,15.6z"/>
	<path class="st1" d="M17.2,21.8h1.3c0,0,0.1,0,0.1,0.1v1.3c0,0,0,0.1-0.1,0.1h-1.3c0,0-0.1,0-0.1-0.1L17.2,21.8
		C17.1,21.8,17.2,21.8,17.2,21.8z"/>
</g>
</svg>
