<?xml version="1.0" encoding="utf-8"?>
<!-- Generator: Adobe Illustrator 27.5.0, SVG Export Plug-In . SVG Version: 6.00 Build 0)  -->
<svg version="1.1" id="圖層_1" xmlns="http://www.w3.org/2000/svg" xmlns:xlink="http://www.w3.org/1999/xlink" x="0px" y="0px"
	 viewBox="0 0 40 40" style="enable-background:new 0 0 40 40;" xml:space="preserve">
<style type="text/css">
	.st0{fill:#61D81D;}
	.st1{fill:#FFFFFF;}
</style>
<g id="Page-1">
	<g id="_x31_2.白版-會員選單" transform="translate(-203.000000, -480.000000)">
		<g id="button" transform="translate(193.000000, 470.000000)">
			<g id="icon" transform="translate(10.000000, 10.000000)">
				<path id="Path" class="st0" d="M21.1,30.3c-3,0-5.6-2.5-5.6-5.6s2.5-5.6,5.6-5.6s5.6,2.5,5.6,5.6C26.7,27.8,24.2,30.3,21.1,30.3
					z"/>
				<path id="Combined-Shape" class="st1" d="M26.3,12.7c1.3,0,2.4,1.1,2.4,2.4v7.7c0,1.3-1.1,2.4-2.4,2.4h-7.6l-5,3.5v-3.5
					c-1.3,0-2.4-1.1-2.4-2.4v-7.7c0-1.3,1.1-2.4,2.4-2.4H26.3z M27.7,22.8v-7.7c0-0.8-0.6-1.4-1.4-1.4H13.7c-0.8,0-1.4,0.6-1.4,1.4
					v7.7c0,0.8,0.6,1.4,1.4,1.4h1v2.6l3.7-2.6h7.9C27.1,24.1,27.7,23.5,27.7,22.8z M16,16.3h8.1v1H16V16.3z M16,18.4h8.1v1H16V18.4z
					 M16,20.6h8.1v1H16V20.6z"/>
			</g>
		</g>
	</g>
</g>
</svg>
