<?xml version="1.0" encoding="UTF-8"?><svg id="NL_YELLOW" xmlns="http://www.w3.org/2000/svg" viewBox="0 0 720.65 191.99"><defs><style>.cls-1{fill:#fffc00;}.cls-2{fill:#fff;}</style></defs><g id="City_Baked"><path class="cls-2" d="M171.95,158.56c-3.13,0-5.56,1.18-7.28,3.53-1.72,2.35-2.58,5.64-2.58,9.84,0,8.75,3.29,13.13,9.86,13.13,2.76,0,6.1-.69,10.02-2.07v6.98c-3.22,1.34-6.82,2.01-10.8,2.01-5.71,0-10.08-1.73-13.11-5.2-3.03-3.46-4.54-8.44-4.54-14.92,0-4.08,.74-7.66,2.23-10.73,1.49-3.07,3.62-5.42,6.41-7.06,2.78-1.64,6.05-2.46,9.79-2.46s7.64,.92,11.49,2.77l-2.69,6.77c-1.47-.7-2.95-1.31-4.43-1.83-1.49-.52-2.95-.78-4.38-.78Z"/><path class="cls-2" d="M286.57,191.46v-39.26h8.33v39.26h-8.33Z"/><path class="cls-2" d="M416.17,191.46h-8.33v-32.33h-10.66v-6.93h29.65v6.93h-10.66v32.33Z"/><path class="cls-2" d="M541.34,168.36l8.19-16.17h8.97l-13.02,23.98v15.28h-8.27v-15.01l-13.03-24.25h9.02l8.14,16.17Z"/></g><g><path class="cls-1" d="M560.42,47.89c-3.06,0-6.11,0-9.17,0-1.68,0-1.87,0-2.05-1.73-.39-3.64-1.25-7.17-2.8-10.53-3.64-7.85-9.87-12.15-18.35-13.13-4.75-.55-9.48-.25-14.09,1.28-6.6,2.19-11.19,6.55-14.04,12.82-1.35,2.96-2.07,6.1-2.51,9.3-.05,.34-.07,.68-.09,1.01-.04,.6-.34,.93-.95,.95-.42,.01-.85,.02-1.27,.02-5.94,0-11.89,0-17.83,0-.42,0-.85,0-1.27-.02-.6-.02-.91-.35-1-.93-.19-1.17-.35-2.35-.62-3.51-.92-4-2.37-7.79-4.71-11.19-4.28-6.24-10.26-9.48-17.78-9.88-3.23-.17-6.45-.03-9.61,.74-8.11,1.97-13.63,6.94-16.8,14.58-1.11,2.67-1.86,5.45-2.16,8.35-.19,1.84-.22,1.86-2.22,1.86-5.6,0-11.21,0-16.81,0-.68,0-1.36,.01-2.04-.01-1.09-.04-1.31-.25-1.2-1.42,.11-1.27,.29-2.53,.51-3.78,1.43-8.2,4.15-15.92,8.78-22.88,6.84-10.29,16.42-16.47,28.53-18.77,3.76-.71,7.56-1.04,11.39-1.01,9.43,.08,17.8,3.1,25.15,8.99,3.4,2.72,6.34,5.89,9.02,9.31,.47,.6,.93,1.21,1.41,1.8,.32,.4,.7,.44,1.05,.03,.55-.64,1.09-1.3,1.62-1.96,2.79-3.44,5.88-6.58,9.39-9.29,7.44-5.74,15.87-8.66,25.25-8.87,5.9-.13,11.68,.61,17.3,2.47,9.42,3.11,16.62,9.05,21.93,17.32,4.28,6.66,6.85,13.99,8.29,21.74,.28,1.5,.46,3.02,.63,4.53,.2,1.77,.18,1.78-1.71,1.8-1.78,.01-3.57,0-5.35,0-1.27,0-2.55,0-3.82,0Z"/><path class="cls-1" d="M124.28,53.93c3.23,0,6.45-.02,9.68,0,1.17,0,1.36,.2,1.38,1.31,.03,1.78-.06,3.57,0,5.35,.16,4.05,.74,7.75,2.22,11.4,2.67,6.58,6.89,11.85,13.16,15.35,3.84,2.14,7.99,3.37,12.33,3.79,5.17,.5,10.34,.38,15.44-.87,11.94-2.93,19.51-10.44,23.18-22.05,.74-2.36,.94-4.42,1.04-7.27-.08-1.95-.02-3.91,.01-5.86,.01-.88,.23-1.13,1-1.13,6.71-.02,13.42-.02,20.12,0,.78,0,.98,.24,1,1.14,.18,6.55,.03,13.06-1.74,19.45-1.99,7.19-4.95,13.9-9.52,19.84-6.04,7.85-13.88,13.13-23.26,16.18-6.1,1.99-12.38,2.9-18.78,3.07-6.65,.18-13.23-.32-19.7-1.95-16.2-4.09-27.43-13.96-34.05-29.2-2.41-5.56-4.01-11.38-4.56-17.42-.31-3.37-.1-6.79-.12-10.18,0-.62,.37-.93,.95-.94,1.53-.02,3.06-.02,4.58-.03,1.87,0,3.74,0,5.6,0h0Z"/><path class="cls-1" d="M202.98,47.78c-.45-.66-.5-1.34-.64-2-2.1-10.21-8.02-17.2-17.75-20.94-3.91-1.51-7.99-2.26-12.18-2.45-5.54-.25-11.03,0-16.4,1.55-7.03,2.04-12.75,5.87-16.67,12.16-2,3.21-3.24,6.71-3.88,10.43-.22,1.27-.29,1.35-1.39,1.35-6.54,.02-13.07,.02-19.61,0-1.18,0-1.41-.26-1.23-1.35,.25-1.59,.52-3.18,.87-4.76,1.71-7.72,4.75-14.86,9.43-21.25,6.56-8.95,15.3-14.79,25.9-17.91,5.16-1.52,10.44-2.28,15.8-2.52,7.25-.33,14.42,.21,21.47,2.02,9.34,2.4,17.49,6.89,24.1,14,5.53,5.95,9.28,12.93,11.74,20.63,.8,2.51,1.42,5.06,1.87,7.66,.13,.75,.22,1.51,.27,2.27,.06,.95-.16,1.2-1.15,1.21-2.72,.03-5.43,.02-8.15,.02-3.57,0-7.13,0-10.7,0-.59,0-1.17-.07-1.71-.1Z"/><path class="cls-1" d="M23.84,.55c6.11,0,12.22,.09,18.33-.03,4.12-.08,8.12,.5,12.06,1.58,7.19,1.97,13.88,4.99,19.79,9.61,8.46,6.62,13.55,15.28,15.52,25.79,.44,2.33,.61,4.71,.88,7.07,.07,.59,.08,1.19,.08,1.78,0,1.36-.13,1.49-1.4,1.54-.25,.01-.51,0-.76,0-5.94,0-11.88,0-17.82,0-.42,0-.85,0-1.27-.02-.6-.02-.96-.33-.96-.94,0-1.71-.22-3.38-.53-5.06-.7-3.81-2.1-7.33-4.43-10.45-3.59-4.82-8.56-7.34-14.32-8.5-2-.4-4.02-.61-6.07-.61-6.2,0-12.39,0-18.59,0-.42,0-.85,.01-1.27,.05-.5,.04-.74,.36-.76,.84-.03,.68-.04,1.36-.04,2.04,0,6.79,0,13.58,0,20.37,0,2.3-.01,2.29-2.21,2.28-5.94,0-11.88,0-17.82,0-.51,0-1.02-.02-1.52-.07-.37-.04-.62-.28-.65-.66-.04-.59-.07-1.18-.07-1.78C0,31.29,0,17.2,0,3.11,0,.34-.08,.55,2.7,.55c7.04,0,14.09,0,21.13,0Z"/><path class="cls-1" d="M284.28,113.66c-10.36,0-20.72,0-31.08,0-.76,0-1.53,0-2.29-.03-.48-.01-.8-.27-.83-.76-.04-.59-.05-1.19-.05-1.78,0-18.09,0-36.17,0-54.26,0-3.15-.28-2.89,2.86-2.9,5.52,0,11.04,0,16.56,0,.59,0,1.19,0,1.78,.04,.47,.02,.8,.26,.83,.76,.04,.85,.06,1.7,.06,2.54,0,10.36,0,20.72,0,31.08,0,3.24-.32,3.04,3,3.04,13.67,0,27.34,0,41.01,0,3.15,0,2.89-.23,2.89,2.88,0,5.52,0,11.04,0,16.56,0,.68,0,1.36-.05,2.03-.03,.49-.34,.75-.83,.77-.76,.02-1.53,.03-2.29,.03-10.53,0-21.06,0-31.59,0Z"/><path class="cls-1" d="M683.59,.02c11.3,0,22.59,0,33.89,0,.76,0,1.53,.01,2.29,.04,.49,.02,.79,.29,.83,.77,.05,.51,.05,1.02,.05,1.53,0,5.86,0,11.72,0,17.58,0,.51,.01,1.02-.04,1.53-.05,.47-.33,.78-.82,.8-.68,.03-1.36,.04-2.04,.04-6.79,0-13.59,0-20.38,0-2.24,0-2.25,.02-2.26,2.23-.01,6.71,0,13.42,0,20.13,0,.68,.01,1.36-.02,2.04-.04,.97-.21,1.15-1.25,1.16-4.25,.02-8.49,.02-12.74,.01-2.38,0-4.76-.01-7.13-.02-.61,0-.96-.3-1-.9-.04-.76-.06-1.53-.06-2.29,0-6.29,0-12.57,0-18.86,0-.59,.01-1.19,0-1.78-.05-1.61-.12-1.72-1.77-1.72-6.96-.02-13.93,0-20.89-.02-4.22-.02-3.65,.53-3.67-3.62-.03-5.27,0-10.53,0-15.8,0-.68,0-1.36,.04-2.04,.03-.48,.32-.77,.81-.79,.76-.03,1.53-.04,2.29-.04,11.3,0,22.59,0,33.89,0Z"/><path class="cls-1" d="M598.75,83.85c0-9.25,0-18.5,0-27.76,0-2.22-.18-2.24,2.22-2.24,5.94,0,11.88,0,17.83,0,.42,0,.85,0,1.27,.03,.61,.05,.89,.41,.9,1.01,0,.51,.03,1.02,.03,1.53,0,18.33,0,36.67,0,55,0,.08,0,.17,0,.25-.04,1.95-.04,1.97-2,1.97-6.11,.01-12.22,0-18.33,0-.25,0-.51,0-.76-.01-.95-.06-1.1-.22-1.14-1.27-.02-.68,0-1.36,0-2.04,0-8.83,0-17.66,0-26.48h0Z"/><path class="cls-1" d="M549.3,83.67c0-9.17,0-18.33,0-27.5,0-2.38-.2-2.32,2.4-2.31,5.77,0,11.54,0,17.31,0,.59,0,1.19,.02,1.78,.07,.37,.03,.63,.29,.66,.65,.06,.76,.08,1.52,.08,2.29,0,14.51,0,29.03,0,43.54,0,3.65,0,7.3,0,10.95,0,.42,.01,.85-.02,1.27-.06,.78-.28,.97-1.15,1.02-.34,.02-.68,.01-1.02,.01-5.94,0-11.88,0-17.82,0-.51,0-1.02-.02-1.52-.06-.38-.03-.63-.27-.65-.65-.04-.76-.06-1.52-.06-2.29,0-9,0-17.99,0-26.99h0Z"/><path class="cls-1" d="M497.3,83.85c0,9.08,0,18.16,0,27.24,0,2.66,.14,2.57-2.42,2.57-5.86,0-11.71,0-17.57,0-.51,0-1.02,0-1.52-.06-.37-.04-.62-.28-.66-.65-.05-.5-.07-1.01-.07-1.52,0-18.33,0-36.67,0-55,0-2.54-.18-2.58,2.44-2.58,5.86,.01,11.71,0,17.57,0,.51,0,1.02,.01,1.52,.06,.38,.03,.63,.28,.65,.65,.04,.76,.05,1.53,.05,2.29,0,9,0,17.99,0,26.99h0Z"/><path class="cls-1" d="M348.02,83.85c0-8.91,0-17.83,0-26.74,0-.42,0-.85,0-1.27,.04-1.94,.04-1.97,2-1.98,6.11-.02,12.22,0,18.34,0,.34,0,.68,0,1.02,.04,.61,.05,.88,.41,.89,1.01,0,.42,.02,.85,.02,1.27,0,18.42,0,36.84,0,55.26,0,.25,0,.51,0,.76-.05,1.29-.17,1.44-1.51,1.44-6.45,.02-12.9,0-19.35,0-.08,0-.17,0-.25,0-.94-.06-1.11-.23-1.14-1.27-.03-.68-.01-1.36-.01-2.04,0-8.83,0-17.66,0-26.49h0Z"/><path class="cls-1" d="M22.09,112.5c-.53,.39-1.14,.32-1.73,.32-6.12,0-12.23,0-18.35,0-.34,0-.68,0-1.02-.03-.57-.04-.96-.3-.97-.93-.01-.59-.02-1.19-.02-1.78,0-17.58,0-35.16,0-52.74,0-.76,0-1.53,.02-2.29,.04-.95,.23-1.12,1.25-1.18,.42-.02,.85-.02,1.27-.02,5.69,0,11.38,0,17.07,0,.59,0,1.19,.02,1.78,.06,.48,.03,.79,.28,.81,.79,.03,.68,.04,1.36,.04,2.04,0,17.84,0,35.67,0,53.51,0,.76,.13,1.53-.18,2.25Z"/><path class="cls-1" d="M90.51,84.21c0,8.74,0,17.47,0,26.21,0,.59,.01,1.19,0,1.78-.04,1.3-.16,1.44-1.5,1.45-6.45,.02-12.89,0-19.34,0-.25,0-.51-.03-.76-.07-.39-.06-.59-.33-.61-.69-.04-.59-.06-1.18-.06-1.78,0-17.9,0-35.8,0-53.7,0-.17,0-.34,0-.51,.03-2.21,.03-2.23,2.26-2.23,5.94,0,11.88,0,17.81,0,.34,0,.68,0,1.02,.01,.92,.05,1.11,.25,1.16,1.28,.03,.76,.02,1.53,.02,2.29,0,8.65,0,17.31,0,25.96Z"/><path class="cls-1" d="M400.95,83.84c0-8.92,0-17.83,0-26.75,0-.76,.02-1.53,.05-2.29,.02-.48,.28-.78,.77-.82,.42-.03,.85-.05,1.27-.05,5.94,0,11.89,0,17.83,0,.34,0,.68,0,1.02,.02,.85,.05,1.07,.24,1.12,1.03,.04,.59,.04,1.19,.04,1.78,0,18.17,0,36.35,0,54.52,0,.51,0,1.02-.04,1.53-.04,.47-.3,.78-.8,.81-.34,.02-.68,.04-1.02,.04-6.11,0-12.23,0-18.34,0-.17,0-.34,0-.51,0-1.22-.05-1.35-.16-1.4-1.28-.03-.68-.01-1.36-.01-2.04,0-8.83,0-17.66,0-26.5h0Z"/><path class="cls-1" d="M695.11,84.09c0,9,0,18,0,27.01,0,2.69,.12,2.56-2.42,2.56-5.77,0-11.55,0-17.32,0-.51,0-1.02-.02-1.53-.04-.5-.03-.77-.34-.8-.81-.04-.59-.04-1.19-.04-1.78,0-18,0-36.01,.01-54.01,0-3.46-.33-3.07,3.19-3.08,5.35-.02,10.7,0,16.05,0,.68,0,1.36,.01,2.04,.05,.49,.03,.75,.34,.77,.82,.03,.76,.05,1.53,.05,2.29,0,9,0,18,0,27.01h0Z"/><path class="cls-1" d="M621,24.03c0,6.88,0,13.76,0,20.64,0,.59,.02,1.19,0,1.78-.05,1.26-.19,1.43-1.52,1.43-6.45,.01-12.91,.01-19.36,0-1.15,0-1.31-.19-1.36-1.33-.02-.51,0-1.02,0-1.53,0-14.01,0-28.02,0-42.03,0-.59-.01-1.19,.02-1.78,.05-.98,.21-1.12,1.25-1.18,.08,0,.17,0,.25,0,6.45,0,12.91,0,19.36,0,1.18,0,1.32,.17,1.37,1.33,.03,.59,.01,1.19,.01,1.78,0,6.96,0,13.93,0,20.89Z"/><path class="cls-1" d="M348.02,23.96c0-7.22,0-14.44,0-21.66,0-2.3,0-2.28,2.22-2.28,5.95,0,11.89,0,17.84,0,.51,0,1.02,.02,1.52,.08,.37,.04,.61,.29,.64,.67,.04,.59,.06,1.19,.06,1.78,0,14.27,0,28.54,0,42.81,0,2.6,.1,2.54-2.48,2.53-5.78,0-11.55,0-17.33,0-.59,0-1.19-.03-1.78-.07-.39-.03-.61-.31-.63-.67-.04-.68-.06-1.36-.06-2.03,0-7.05,0-14.1,0-21.15Z"/><path class="cls-1" d="M272.13,23.95c0,7.22,0,14.43,0,21.65,0,2.26-.02,2.28-2.19,2.29-5.94,.01-11.88,0-17.83,0-.42,0-.85-.02-1.27-.05-.51-.03-.75-.37-.77-.84-.04-.68-.03-1.36-.03-2.04,0-14.01,0-28.01,0-42.02,0-3.19-.26-2.92,2.83-2.93,5.6,0,11.21,0,16.81,0,.51,0,1.02,0,1.53,.03,.63,.02,.89,.4,.9,.98,.02,.68,.02,1.36,.02,2.04,0,6.96,0,13.92,0,20.88Z"/></g></svg>