<?xml version="1.0" encoding="UTF-8"?>
<svg viewBox="0 0 75 75" version="1.1" xmlns="http://www.w3.org/2000/svg" xmlns:xlink="http://www.w3.org/1999/xlink">
    <title>in&amp;out/color-black/crypto/trc20</title>
    <g id="in&amp;out/color-black/crypto/trc20" stroke="none" stroke-width="1" fill="none" fill-rule="evenodd">
        <g id="trc20" fill-rule="nonzero">
            <rect id="Rectangle" fill="#FFDEDE" x="0" y="0" width="75" height="75" rx="37.5"></rect>
            <path d="M52.8148466,23.8146343 C52.7706781,23.7816826 52.7265097,23.7487308 52.6712994,23.715779 C52.4504575,23.5510202 52.1964894,23.3752775 51.8873109,23.2764222 L51.8652269,23.2654383 C46.5208553,21.9803197 41.0881472,20.6622493 35.8321125,19.3881146 C31.0619299,18.234803 26.3027893,17.0814914 21.5326066,15.9281799 C21.4111436,15.8952281 21.2896806,15.8622763 21.1571755,15.8293246 C20.726534,15.7085015 20.22964,15.5766944 19.6996197,15.6425979 C19.5450304,15.6645658 19.4125254,15.7194854 19.2910624,15.7963728 L19.1585573,15.906212 C18.9487576,16.1039226 18.8383367,16.3565527 18.7831263,16.4993437 L18.75,16.5872151 L18.75,17.0924754 L18.7720842,17.1693628 C21.7865747,25.5720615 24.8783597,34.0955834 27.8597239,42.3445072 C30.1564786,48.6932128 32.54157,55.2725806 34.8714509,61.7311256 C35.0149981,62.1704825 35.4235553,62.4560644 35.9314916,62.5 L36.0419122,62.5 C36.5167222,62.5 36.9363216,62.2693378 37.1461213,61.8958844 L45.8914562,49.2094569 C48.0225797,46.1229756 50.1537028,43.02551 52.2848263,39.9390288 C53.1571512,38.6758778 54.0294762,37.4017431 54.9018012,36.1385925 C56.3372731,34.0516475 57.8169131,31.8987994 59.2855109,29.8008706 L59.3628056,29.6910314 L59.3628056,29.5592244 C59.3959319,29.1747872 59.4069741,28.383945 58.7665328,27.966556 C56.8562512,26.6375017 54.8134647,25.2205761 52.8148466,23.8146343 Z" id="Path" fill="#FFDEDE"></path>
            <path d="M52.6481153,23.1677055 C52.4272734,23.0029468 52.2373172,22.9139398 51.9281387,22.8150845 C44.7014778,21.379861 39.3361356,20.2375378 35.8321125,19.3881146 C31.0619299,18.234803 26.3027893,17.0814914 21.5326066,15.9281799 C21.4111436,15.8952281 21.2896806,15.8622763 21.1571755,15.8293246 C20.726534,15.7085015 20.22964,15.5766944 19.6996197,15.6425979 C19.5450304,15.6645658 19.4125254,15.7194854 19.2910624,15.7963728 L19.1585573,15.906212 C18.9487576,16.1039226 18.8383367,16.3565528 18.7831263,16.4993437 L18.75,16.5872151 L18.75,17.0924754 L18.7720842,17.1693628 C21.7865747,25.5720615 24.8783597,34.0955834 27.8597239,42.3445072 C30.1564786,48.6932128 32.54157,55.2725806 34.8714509,61.7311256 C35.0149981,62.1704825 35.4235553,62.4560644 35.9314916,62.5 L36.0419122,62.5 C36.5167222,62.5 36.9363216,62.2693378 37.1461213,61.8958844 L45.8914562,49.2094569 C48.0225797,46.1229756 50.1537028,43.02551 52.2848263,39.9390288 C53.1571512,38.6758778 54.0294762,37.4017431 54.9018012,36.1385925 C56.3372731,34.0516475 57.8169131,31.8987994 59.2855109,29.8008706 L59.3628056,29.6910314 L59.3628056,29.5592244 C59.3959319,29.1747872 59.4069741,28.383945 58.7665328,27.966556 C56.9379947,26.5559775 52.7033256,23.2006573 52.6481153,23.1677055 Z M42.5239778,34.7441941 C43.7560475,33.4000675 51.2010841,27.1741436 51.3231813,27.0273063 C51.8707675,27.4113424 52.7665641,28.1403636 54.01057,29.2143698 M38.3888966,34.7013197 C34.7189481,31.0755565 25.734069,20.6027894 25.523951,20.3540386 C26.3791679,20.5703437 33.9381766,22.3000131 48.2009766,25.5430469 C46.0666206,27.7709892 40.5575719,32.8882366 38.3888966,34.7013197 Z M39.6679128,39.8177591 C39.7485016,39.7734272 44.5350203,37.2867153 54.0274688,32.3576234 C51.6757409,35.7933391 39.0322775,53.3792009 38.1531269,54.6980725 C38.2630206,53.3681181 39.6019766,40.8041422 39.6679128,39.8177591 Z M36.6053322,39.0625 C36.4750313,40.1913538 35.5745331,53.2530772 35.4768075,54.1736959 C35.4225153,54.0092997 28.1833989,34.8194406 24.5023917,24.4734403 C27.4341673,28.0463175 36.2035703,38.6131503 36.6053322,39.0625 Z" id="Combined-Shape" fill="#EE3030"></path>
        </g>
    </g>
</svg>