<?xml version="1.0" encoding="UTF-8"?>
<svg width="229px" height="103px" viewBox="0 0 229 103" version="1.1" xmlns="http://www.w3.org/2000/svg" xmlns:xlink="http://www.w3.org/1999/xlink">
    <title>Untitled</title>
    <defs>
        <polygon id="path-1" points="0 0 22 0 22 22 0 22"></polygon>
    </defs>
    <g id="Page-1" stroke="none" stroke-width="1" fill="none" fill-rule="evenodd">
        <g id="Group-22">
            <path d="M126.215676,23 L131.7113,23 C131.795596,23 131.871714,23.0498272 131.906943,23.1271233 L135.850002,31.7830076 C135.927379,31.9522925 136.164541,31.9522925 136.241288,31.7823688 L140.154781,23.1277621 C140.190009,23.0498272 140.266757,23 140.351053,23 L145.784398,23 C145.945442,23 146.049869,23.1737565 145.975638,23.3194053 L138.662609,37.6817852 C138.646882,37.7130869 138.638704,37.7475827 138.638704,37.7820785 L138.638704,44.7815268 C138.638704,44.902262 138.542455,45 138.423559,45 L133.576515,45 C133.457619,45 133.361371,44.902262 133.361371,44.7815268 L133.361371,37.7820785 C133.361371,37.7475827 133.353192,37.7130869 133.337466,37.6817852 L126.024437,23.3194053 C125.950206,23.1737565 126.054003,23 126.215676,23" id="Fill-1" fill="#FFCC00"></path>
            <path d="M161.789239,27.2934464 L154.38118,27.2934464 C154.264707,27.2934464 154.169803,27.3911844 154.169803,27.5119196 L154.169803,31.5249281 C154.169803,31.6456633 154.264707,31.7440402 154.38118,31.7440402 L160.882105,31.7440402 C160.998578,31.7440402 161.093482,31.8417782 161.093482,31.9625134 L161.093482,35.6618659 C161.093482,35.7826011 160.998578,35.8803392 160.882105,35.8803392 L154.38118,35.8803392 C154.264707,35.8803392 154.169803,35.9780772 154.169803,36.0988124 L154.169803,40.4880804 C154.169803,40.6088156 154.264707,40.7065536 154.38118,40.7065536 L161.789239,40.7065536 C161.905712,40.7065536 162,40.8042916 162,40.9250269 L162,44.7815268 C162,44.902262 161.905712,45 161.789239,45 L149.211377,45 C149.094288,45 149,44.902262 149,44.7815268 L149,23.2191121 C149,23.0983768 149.094288,23 149.211377,23 L161.789239,23 C161.905712,23 162,23.0983768 162,23.2191121 L162,27.0749731 C162,27.1957084 161.905712,27.2934464 161.789239,27.2934464" id="Fill-3" fill="#FFCC00"></path>
            <path d="M175.266516,45 C170.786156,45 167.267017,42.7858419 167.000388,38.5895444 C166.992999,38.4660505 167.092138,38.3600204 167.214061,38.3600204 L172.302188,38.3600204 C172.4081,38.3600204 172.494309,38.4423497 172.508471,38.5483798 C172.71845,40.0727185 173.721543,40.8080685 175.115651,40.8080685 C176.626141,40.8080685 177.592288,40.0427806 177.592288,38.7885068 C177.592288,34.8111303 166.989304,36.9523148 167.04965,29.3337397 C167.04965,25.2640547 170.3428,23 174.783134,23 C179.317066,23 182.397775,25.237859 182.71305,29.1934057 C182.722902,29.3175233 182.623147,29.4254245 182.5,29.4254245 L177.327505,29.4254245 C177.220361,29.4254245 177.134769,29.3418479 177.120606,29.2345704 C176.956811,27.9721884 176.016526,27.2212457 174.692616,27.1913078 C173.453682,27.1613699 172.517708,27.8037876 172.517708,29.1497463 C172.517708,32.8832535 183,31.2004933 183,38.390582 C183,42.0012191 180.22102,45 175.266516,45" id="Fill-5" fill="#FFCC00"></path>
            <path d="M135.955412,70.8177357 L132.403072,70.8177357 C132.286125,70.8177357 132.191454,70.9154737 132.191454,71.0362089 L132.191454,75.4561398 C132.191454,75.5768751 132.286125,75.6752519 132.403072,75.6752519 L136.016052,75.6752519 C137.746124,75.6752519 138.747907,74.8601295 138.747907,73.293127 C138.747907,71.7261245 137.685484,70.8177357 135.955412,70.8177357 M135.590959,62.2934464 L132.403072,62.2934464 C132.286125,62.2934464 132.191454,62.3911844 132.191454,62.5119196 L132.191454,66.6814367 C132.191454,66.802172 132.286125,66.9005488 132.403072,66.9005488 L135.590959,66.9005488 C137.290711,66.9005488 138.231856,66.1167281 138.231856,64.612329 C138.231856,63.10793 137.290711,62.2934464 135.590959,62.2934464 M136.926876,80 L127.212237,80 C127.09529,80 127,79.902262 127,79.7808879 L127,58.2184732 C127,58.097738 127.09529,58 127.212237,58 L136.592742,58 C140.93401,58 143.513649,60.2249775 143.513649,63.7033015 C143.513649,66.0924533 142.26869,67.7252533 140.52253,68.4886321 C140.339994,68.5691222 140.348657,68.8303958 140.536762,68.8968321 C142.660989,69.6487122 144,71.7274021 144,74.0137054 C144,77.6498156 141.419742,80 136.926876,80" id="Fill-7" fill="#FFCC00"></path>
            <path d="M148.203838,58 L152.795566,58 C152.908213,58 153,58.097738 153,58.2184732 L153,79.7815268 C153,79.902262 152.908213,80 152.795566,80 L148.203838,80 C148.091191,80 148,79.902262 148,79.7815268 L148,58.2184732 C148,58.097738 148.091191,58 148.203838,58" id="Fill-9" fill="#FFCC00"></path>
            <path d="M178,58.2184732 L178,79.7808879 C178,79.9016232 177.905644,80 177.789088,80 L172.939953,80 C172.869032,80 172.803045,79.962949 172.763576,79.9016232 L164.56081,67.0372543 C164.445487,66.8564709 164.173521,66.9407939 164.173521,67.1579895 L164.173521,79.7808879 C164.173521,79.9016232 164.079165,80 163.962608,80 L159.210912,80 C159.094356,80 159,79.9016232 159,79.7808879 L159,58.2184732 C159,58.097738 159.094356,58 159.210912,58 L164.060047,58 C164.130968,58 164.196955,58.037051 164.236424,58.0983768 L172.438573,71.0215163 C172.553897,71.2029385 172.826479,71.1186155 172.826479,70.9014199 L172.826479,58.2184732 C172.826479,58.097738 172.920835,58 173.037392,58 L177.789088,58 C177.905644,58 178,58.097738 178,58.2184732" id="Fill-11" fill="#FFCC00"></path>
            <path d="M203.358517,65.0784399 L198.053828,65.0784399 C197.980023,65.0784399 197.912984,65.0376655 197.876082,64.9724264 C197.078995,63.5942509 195.65457,62.8621932 193.771329,62.8621932 C190.452592,62.8621932 188.249531,65.2628658 188.249531,69.0178766 C188.249531,73.0181612 190.482729,75.3567312 194.193859,75.3567312 C196.65462,75.3567312 198.393328,74.0814327 199.223012,71.8306845 C199.274675,71.6914241 199.168889,71.5408724 199.023125,71.5408724 L192.986542,71.5408724 C192.869685,71.5408724 192.775585,71.4448957 192.775585,71.3263362 L192.775585,67.8780746 C192.775585,67.7595151 192.869685,67.6629111 192.986542,67.6629111 L203.789658,67.6629111 C203.905899,67.6629111 204,67.7595151 204,67.8780746 L204,72.5219678 C204,72.5445505 203.996925,72.5671333 203.990774,72.5890888 C202.872023,76.3735826 199.257454,80.0037609 193.477956,80 C187.652331,79.995606 182.965138,74.8762203 183,68.9350731 C183.037713,62.5159242 187.462285,58 193.771329,58 C198.734058,58 202.366463,60.5367964 203.564554,64.8024285 C203.602686,64.9391796 203.498745,65.0784399 203.358517,65.0784399" id="Fill-13" fill="#FFCC00"></path>
            <g id="Group-17" transform="translate(207.000000, 58.000000)">
                <mask id="mask-2" fill="white">
                    <use xlink:href="#path-1"></use>
                </mask>
                <g id="Clip-16"></g>
                <path d="M11.0307066,17.226774 C14.4526548,17.226774 16.6837102,14.7481643 16.6837102,10.9847192 C16.6837102,7.15952712 14.4526548,4.74266436 11.0307066,4.74266436 C7.54709609,4.74266436 5.34718329,7.15952712 5.34718329,10.9847192 C5.34718329,14.7481643 7.54709609,17.226774 11.0307066,17.226774 M11.0307066,22 C4.9498038,22 0,17.4413291 0,10.9847192 C0,4.52873303 4.9498038,0 11.0307066,0 C17.1421291,0 22.0003737,4.52873303 22.0003737,10.9847192 C22.0003737,17.4413291 17.1116094,22 11.0307066,22" id="Fill-15" fill="#FFCC00" mask="url(#mask-2)"></path>
            </g>
            <path d="M2.70691616,0.246556007 L13.0867363,6.28994904 C13.6456115,6.61457344 13.9892484,7.21566024 13.9892484,7.86553453 L13.9892484,38.3670933 C13.9892484,39.0169676 14.3335056,39.6180544 14.8917606,39.9426788 L26.6461284,46.7860615 C27.2478032,47.1363306 27.9995865,46.6984942 27.9995865,45.9985814 L27.9995865,18.124041 C27.9995865,16.7229645 29.5037734,15.8472918 30.7071229,16.54783 L41.0974879,22.5968523 C41.6557428,22.9221022 42,23.523189 42,24.1730633 L41.9944175,78.8306807 C41.9944175,79.480555 41.6507805,80.0810164 41.0925256,80.4062662 L2.70691616,102.753435 C1.50356663,103.453973 0,102.578301 0,101.17785 L0,66.7657865 C0,65.3653356 1.50356663,64.4896628 2.70691616,65.190201 L13.0867363,71.2329686 C13.6456115,71.5582184 13.9892484,72.1593053 13.9892484,72.8091795 L13.9892484,78.5636006 C13.9892484,79.2635133 14.7410317,79.7013497 15.3427065,79.3510806 L27.0976946,72.5076979 C27.6559496,72.1830735 27.9995865,71.5819867 27.9995865,70.9321124 L27.9995865,64.6710522 C27.9995865,64.0205524 27.6559496,63.4200911 27.0976946,63.0948412 L0.901891864,47.8443745 C0.343636928,47.5191247 0,46.9186633 0,46.2681636 L0,1.82276698 C0,0.42169056 1.50356663,-0.453982203 2.70691616,0.246556007" id="Fill-18" fill="#FFCC00"></path>
            <path d="M71.3248471,72.4351448 L83.2387775,79.257886 C83.8504598,79.6081551 84.6147472,79.1703187 84.6147472,78.4697806 L84.6147472,64.7661285 C84.6147472,64.1162543 84.2653947,63.5151675 83.6978545,63.1905431 L71.7832935,56.3678019 C71.1722419,56.0175329 70.4073238,56.4553692 70.4073238,57.1552819 L70.4073238,70.858934 C70.4073238,71.5094337 70.7573069,72.1098949 71.3248471,72.4351448 M70.4073238,32.36749 L70.4073238,46.0705166 C70.4073238,46.7710547 71.1722419,47.2088911 71.7832935,46.858622 L83.6978545,40.0358808 C84.2653947,39.7112564 84.6147472,39.1101697 84.6147472,38.4602955 L84.6147472,24.7566434 C84.6147472,24.0561052 83.8504598,23.6182689 83.2387775,23.9685379 L71.3248471,30.7912791 C70.7573069,31.116529 70.4073238,31.7169903 70.4073238,32.36749 M56.9175234,22.7694918 L96.2480605,0.246564818 C97.471425,-0.453973333 99,0.421699356 99,1.82215018 L99,46.2681684 C99,46.9180427 98.6506475,47.5191294 98.0824766,47.8443793 L93.0748801,50.7122073 C92.4631979,51.0624764 92.4631979,51.9375236 93.0748801,52.2877927 L98.0824766,55.1556207 C98.6506475,55.4808706 99,56.0819573 99,56.7318316 L99,101.17785 C99,102.578301 97.471425,103.453973 96.2480605,102.753435 L56.9175234,80.2305082 C56.3499831,79.9052583 56,79.304797 56,78.6542973 L56,24.3457027 C56,23.695203 56.3499831,23.0947417 56.9175234,22.7694918" id="Fill-20" fill="#FFCC00"></path>
        </g>
    </g>
</svg>